<svg xmlns="http://www.w3.org/2000/svg" xmlns:xlink="http://www.w3.org/1999/xlink" x="0px" y="0px" viewBox="0 0 300 104.3" style="enable-background:new 0 0 300 104.3;" xml:space="preserve"><style type="text/css">	.st0{fill:#FFFFFF;}</style><g id="Layer_3"></g><g id="Layer_1"></g><g id="Layer_2">	<g>		<path d="M3248.5-2332c-7,183.1-81.5,348.9-199.3,473.3c-50.6-329.8-101.2-659.6-151.7-989.4   c-125.9,337.2-251.9,674.5-377.8,1011.7c-125.9-337.2-251.9-674.5-377.8-1011.7c-50.6,329.8-101.2,659.6-151.7,989.5   c-117.8-124.4-192.2-290.2-199.3-473.3c-0.4,9.4-0.7,18.8-0.7,28.4c0,402.9,326.6,729.5,729.5,729.5s729.5-326.6,729.5-729.5   C3249.2-2313.1,3248.9-2322.5,3248.5-2332z M2101.6-1762.7c19.1-229.9,38.2-459.8,57.3-689.7c120.3,265.8,240.5,531.6,360.8,797.5   c120.3-265.8,240.5-531.6,360.8-797.5c19.1,229.9,38.2,459.8,57.3,689.7c-118.4,83-262.5,131.9-418.1,131.9   S2220-1679.7,2101.6-1762.7z"></path>		<g>			<g>				<path d="M2988.6-2758.5v-41.3h18.9c3.7,0,6.6,0.9,8.9,2.6c2.5,1.9,3.7,4.6,3.7,8.2c0,2.7-0.7,5-2,6.8c-1.4,2-3.4,3.2-6,3.7v0.1     c4.5,0.6,6.9,3.7,7.2,9.3c0.2,3.3,0.3,5.2,0.3,5.6c0.3,2.5,0.8,4.1,1.6,5h-4.3c-0.5-0.8-0.9-3-1.1-6.4c-0.2-3.9-0.7-6.6-1.4-8.1     c-1.2-2.5-3.5-3.8-6.8-3.8h-14.9v18.3H2988.6z M2992.5-2796.4v16.3h14.7c2.5,0,4.6-0.7,6.3-2.2c1.7-1.5,2.6-3.4,2.6-5.8     c0-2.6-0.8-4.6-2.3-6c-1.5-1.4-3.7-2.2-6.6-2.2H2992.5z"></path>			</g>			<g>				<path d="M3003.9-2745.1c-19.9,0-36.1-16.2-36.1-36.1s16.2-36.1,36.1-36.1s36.1,16.2,36.1,36.1S3023.8-2745.1,3003.9-2745.1z      M3003.9-2813.6c-17.9,0-32.4,14.5-32.4,32.4c0,17.9,14.5,32.4,32.4,32.4c17.9,0,32.4-14.5,32.4-32.4     C3036.3-2799,3021.8-2813.6,3003.9-2813.6z"></path>			</g>		</g>	</g>	<g>		<g>			<g>				<path d="M759.5-2187.1v-17.4h8c1.5,0,2.8,0.4,3.7,1.1c1,0.8,1.6,1.9,1.6,3.4c0,1.1-0.3,2.1-0.9,2.9c-0.6,0.8-1.4,1.3-2.5,1.6v0     c1.9,0.2,2.9,1.6,3,3.9c0.1,1.4,0.1,2.2,0.1,2.3c0.1,1,0.3,1.7,0.7,2.1h-1.8c-0.2-0.4-0.4-1.3-0.5-2.7c-0.1-1.6-0.3-2.8-0.6-3.4     c-0.5-1.1-1.5-1.6-2.9-1.6h-6.3v7.7H759.5z M761.1-2203.1v6.9h6.2c1.1,0,1.9-0.3,2.7-0.9c0.7-0.6,1.1-1.4,1.1-2.5     c0-1.1-0.3-1.9-1-2.5c-0.6-0.6-1.6-0.9-2.8-0.9H761.1z"></path>			</g>			<g>				<path d="M765.9-2181.5c-8.4,0-15.2-6.8-15.2-15.2s6.8-15.2,15.2-15.2s15.2,6.8,15.2,15.2S774.3-2181.5,765.9-2181.5z      M765.9-2210.3c-7.5,0-13.7,6.1-13.7,13.6c0,7.5,6.1,13.7,13.7,13.7c7.5,0,13.7-6.1,13.7-13.7     C779.6-2204.2,773.4-2210.3,765.9-2210.3z"></path>			</g>		</g>		<g>			<g>				<path d="M-168.8-2173.3h2.7v17.2h0.3c2.6-10.7,11.4-18.9,22.3-18.9c10.9-0.3,18.6,6,20.9,16.3h0.3c2.7-9.6,11.5-16.3,22.1-16.3     c16.8,0,22.1,10.5,22.1,25.5v45.9h-2.7v-45.9c0-13.8-4.2-22.8-19.4-22.8c-13.7,0-21.7,11.4-21.9,24.4v44.3h-2.7v-44.8     c0.1-12.9-3.3-23.9-18.7-23.9c-13.8,0-22.5,13.7-22.5,29.2v39.5h-2.7V-2173.3z"></path>				<path d="M-45-2151.7c0.7-13.2,9.4-23.2,26.6-23.2c12.4,0,22.7,4.8,23.1,20v44.4c0,5.3,5,4.8,8.8,4.3v2.7     c-5.3,0.4-11.5,0.4-11.5-6.8v-9.1H1.7c-2.7,9-13.3,17.5-27.7,17.5c-13.8,0-23.4-6.5-23.4-18.9c0-17.2,12.4-20.1,24-20.9     c19.1-1.1,27.3-0.7,27.3-11.3c0-8.4-1.8-19.3-20.4-19.3c-14.5,0-22.9,7.5-23.9,20.5H-45z M1.9-2144.5H1.7     c-3.7,5.3-15.8,4.8-27,5.6c-11,0.8-21.3,3.3-21.3,18.2c0,8,5.2,16.2,20.4,16.2c18.2,0,28.2-13.3,28.2-27V-2144.5z"></path>				<path d="M91.7-2126.8h-0.3c-2.9,12.4-15.5,19.6-27.4,19.6c-19.4,0-29.1-15.5-29.1-33.4c0-18.7,10.3-34.2,30-34.2     c13.3,0,23.8,8.8,26.5,20.2h0.3v-18.6h2.7v67.5c0,19-10.9,28-29.1,28c-14.1,0-26.2-6.4-26.6-22h2.7     c0.5,13.9,11.1,19.3,23.8,19.3c16.8,0,26.5-8,26.5-25.3V-2126.8z M65-2172.2c-18.1,0-27.3,14.5-27.3,31.5     c0,17.2,9.2,30.7,26.2,30.7c17.9,0,27.7-13.9,27.7-30.7C91.7-2156.7,82.5-2172.2,65-2172.2z"></path>				<path d="M155.1-2174.9c20.4,0,31.4,17.5,31.4,36.5c0,19.1-11,36.5-31.5,36.5c-20.4,0-31.4-17.4-31.4-36.5     C123.6-2157.4,134.6-2174.9,155.1-2174.9z M155.1-2104.5c18.6,0,28.6-16.2,28.6-33.8c0-17.4-10-33.8-28.6-33.8     c-18.9,0-28.8,16.4-28.8,33.8C126.3-2120.7,136.2-2104.5,155.1-2104.5z"></path>				<path d="M261.4-2152.6c0-14-9.2-19.6-22.5-19.6c-19.6,0-20.9,12.4-20.9,14.8c0,6.9,3,10.3,7.7,12.2c4.9,1.9,10.5,3.1,17.9,5.2     c10.7,2.7,22.4,5.4,22.4,18.7c0,14-13.2,19.4-25.3,19.4c-18.3,0-28.2-8-28.2-25.5h2.7c0,15.5,9.4,22.8,25.5,22.8     c10,0,22.5-4.5,22.5-16.4c0-12.4-12.1-14.3-24-17.2c-6.7-1.6-11.7-3-15.6-4.8c-5.7-2.4-8.4-6.9-8.4-14.4     c0-7.7,6.2-17.5,23.6-17.5c15.5,0,25.3,6.8,25.3,22.3H261.4z"></path>				<path d="M353.1-2173.3h2.7v17.2h0.3c2.6-10.7,11.4-18.9,22.3-18.9c10.9-0.3,18.6,6,20.9,16.3h0.3c2.7-9.6,11.5-16.3,22.1-16.3     c16.8,0,22.1,10.5,22.1,25.5v45.9h-2.7v-45.9c0-13.8-4.2-22.8-19.4-22.8c-13.7,0-21.7,11.4-21.9,24.4v44.3h-2.7v-44.8     c0.1-12.9-3.3-23.9-18.7-23.9c-13.8,0-22.5,13.7-22.5,29.2v39.5h-2.7V-2173.3z"></path>				<path d="M475.7-2137.8c0.3,18.7,7.7,33.3,27.6,33.3c14.4,0,25-8,27.3-23.1h2.7c-1.9,16-13.8,25.8-29.7,25.8     c-21.6,0.3-30.6-15.7-30.6-36.5c0-23.2,14.8-36.5,30.6-36.5c21.7,0,31.4,17.9,30.6,37.1H475.7z M531.4-2140.5     c0.1-17.1-9.5-31.6-27.6-31.6c-15.1,0-27.2,12.1-28.1,31.6H531.4z"></path>				<path d="M617.6-2200.4h2.7v96.9h-2.7v-19.6h-0.3c-3.5,12.2-13.7,21.2-28,21.2c-18.5,0-29.7-15.3-29.7-36.4     c0-19.6,10.5-36.7,29.7-36.7c14.8,0,24.7,8.6,28,21.2h0.3V-2200.4z M589.4-2172.2c-19.1,0-27,17.8-27,33.9     c0,17.9,9,33.7,27,33.7c17.9,0,28.2-15.6,28.2-33.7C617.6-2159.8,606.4-2172.2,589.4-2172.2z"></path>				<path d="M657.3-2186.7h-2.7v-13.7h2.7V-2186.7z M657.3-2103.5h-2.7v-69.8h2.7V-2103.5z"></path>				<path d="M690.4-2151.7c0.7-13.2,9.4-23.2,26.6-23.2c12.4,0,22.7,4.8,23.1,20v44.4c0,5.3,5,4.8,8.8,4.3v2.7     c-5.3,0.4-11.5,0.4-11.5-6.8v-9.1h-0.3c-2.7,9-13.3,17.5-27.7,17.5c-13.8,0-23.4-6.5-23.4-18.9c0-17.2,12.4-20.1,24-20.9     c19.1-1.1,27.3-0.7,27.3-11.3c0-8.4-1.8-19.3-20.4-19.3c-14.5,0-22.9,7.5-23.9,20.5H690.4z M737.4-2144.5h-0.3     c-3.7,5.3-15.8,4.8-27,5.6c-11,0.8-21.3,3.3-21.3,18.2c0,8,5.2,16.2,20.4,16.2c18.2,0,28.2-13.3,28.2-27V-2144.5z"></path>			</g>		</g>	</g>	<path d="M625-2611c-3.2,84.1-37.4,160.3-91.5,217.4c-23.2-151.5-46.5-303-69.7-454.5c-57.8,154.9-115.7,309.8-173.5,464.7  c-57.8-154.9-115.7-309.8-173.5-464.7c-23.2,151.5-46.5,303-69.7,454.5c-54.1-57.1-88.3-133.3-91.5-217.4c-0.2,4.3-0.3,8.7-0.3,13  c0,185.1,150,335.1,335.1,335.1s335.1-150,335.1-335.1C625.3-2602.4,625.1-2606.7,625-2611z M98.2-2349.5  c8.8-105.6,17.5-211.2,26.3-316.8c55.2,122.1,110.5,244.2,165.7,366.3c55.2-122.1,110.5-244.2,165.7-366.3  c8.8,105.6,17.5,211.2,26.3,316.8c-54.4,38.1-120.6,60.6-192.1,60.6S152.5-2311.4,98.2-2349.5z"></path>	<g>		<g>			<path d="M538.5-758.5c-6.3,0-11.3,2.5-15,7.6c-3.3,4.6-5,10.1-5,16.7c0,6.6,1.7,12.1,5,16.7c3.7,5.1,8.7,7.6,15,7.6    s11.3-2.5,15-7.6c3.3-4.6,5-10.1,5-16.7c0-6.6-1.7-12.1-5-16.7C549.8-756,544.8-758.5,538.5-758.5z"></path>		</g>		<g>			<path d="M441-758.5c-6.2,0-11,2.5-14.4,7.4c-2.9,4.3-4.4,9.7-4.4,16.2c0,6.3,1.5,11.5,4.6,15.6c3.4,4.7,8.1,7.1,14.1,7.1    c5.7,0,10.3-2.3,13.7-7c3.1-4.3,4.6-9.5,4.6-15.7c0-6.3-1.4-11.7-4.2-16C451.9-756,447.2-758.5,441-758.5z"></path>		</g>		<g>			<path d="M662.1-758.5c-13.3,0-20,8.1-20,24.3c0,6.7,1.5,12.2,4.4,16.6c3.5,5.2,8.7,7.7,15.6,7.7c6.2,0,11-2.6,14.4-7.7    c2.9-4.4,4.3-9.9,4.3-16.6c0-6.6-1.4-12.2-4.3-16.6C673.1-756,668.3-758.5,662.1-758.5z"></path>		</g>		<path d="M-168.8-795.9v5.7h559.4c-12.1,43.1-24.2,86.2-36.4,129.3h356.9l38-135C444-795.9,136.4-795.9-168.8-795.9z M466.3-710.4   c0,18.3-8.4,27.4-25.3,27.4c-6.3,0-11.5-1.4-15.7-4.1c-4.9-3.1-7.5-7.5-8-13.1h7c1.4,7.6,7,11.4,16.7,11.4   c12.2,0,18.3-7.2,18.3-21.5v-7.7h-0.2c-1.6,3.5-4,6.4-7.2,8.5c-3.2,2.1-6.8,3.2-10.9,3.2c-8.7,0-15.2-2.8-19.7-8.5   c-4.1-5.2-6.1-12.1-6.1-20.8c0-8.2,2.2-14.9,6.7-20.2c4.7-5.7,11-8.5,19-8.5c4,0,7.7,1.1,11,3.3c3.3,2.2,5.7,4.9,7.1,8.2h0.2v-9.8   h7V-710.4z M507.8-756.6c-6.2-0.3-11.3,1.5-15.2,5.5c-4,3.9-6,8.9-6,15v30.4h-7v-57h6.4v13.4h0.2c1.8-4.6,4.5-8.2,8.3-10.7   c3.8-2.5,8.2-3.6,13.3-3.4V-756.6z M558.5-713c-4.9,6-11.6,8.9-20,8.9c-8.4,0-15.1-3-20-8.9c-4.6-5.6-7-12.7-7-21.2   c0-8.5,2.3-15.6,7-21.2c4.9-6,11.6-8.9,20-8.9c8.4,0,15.1,3,20,8.9c4.6,5.6,7,12.7,7,21.2C565.4-725.7,563.1-718.6,558.5-713z    M622-705.7h-6.4V-716h-0.2c-1.8,3.8-4.4,6.7-8,8.8c-3.5,2.1-7.4,3.1-11.7,3.1c-13.3,0-20-7.2-20-21.7v-37h7v37.1   c0,10.5,5.1,15.7,15.2,15.7c5.6,0,9.9-2.4,13-7.1c2.7-4.2,4.1-9.5,4.1-15.8v-29.9h7V-705.7z M681.4-713.1   c-4.6,6-11.1,9.1-19.3,9.1c-4.4,0-8.4-1.1-11.9-3.2c-3.8-2.2-6.4-5.3-7.8-9.3h-0.2v31.9h-7v-78.1h6.4v10.8h0.2   c1.6-3.8,4.3-6.9,7.9-9.1s7.8-3.4,12.4-3.4c8.2,0,14.7,3,19.3,9.1c4.2,5.5,6.3,12.5,6.3,21.1C687.7-725.6,685.6-718.6,681.4-713.1   z"></path>		<g>			<path d="M-97.1-951.5L-97.1-951.5L-97.1-951.5c-10.4,0.1-17.8,4.4-22,12.9c-1-2.9-2.9-5.6-5.6-8.1c-1.9-1.5-4.1-2.7-6.7-3.6    c-2.6-0.8-5.7-1.3-9.1-1.3c-5.4,0.1-10.3,1.7-14.6,4.8c-2.7,2-4.8,4.3-6.3,7v-9.1v-1.1h-1.1h-5.2h-1.1v1.1v69.7v1.1h1.1h5.2h1.1    v-1.1v-41.2c0.2-8.5,2.5-14.8,7-18.8c4.3-3.8,9-5.8,13.9-5.8c1.2,0,2.7,0.2,4.4,0.4c1.5,0.3,3.2,1.1,4.8,2.3    c1.7,1.1,3.1,2.8,4.2,5.2c1.2,2.5,1.8,5.9,1.8,10.1v47.7v1.1h1.1h5.2h1.1v-1.1v-41.2c0-8,2-14.2,5.9-18.3    c3.9-4.2,8.7-6.2,14.8-6.2c1.1,0,2.5,0.2,4.2,0.4c1.6,0.3,3.3,1.1,5,2.2l0,0l0,0c1.8,1.1,3.3,2.8,4.5,5.1c1.2,2.5,1.8,6,1.8,10.2    v47.7v1.1h1.1h5.1h1.1v-1.1v-47.6c-0.1-8.5-2.2-14.8-6.4-18.9C-84.8-949.5-90.3-951.5-97.1-951.5z"></path>			<path d="M11.5-884.8c-2.1,0-2.6-1-2.8-1.9l0,0l0,0C8.2-888.3,8-890.1,8-892l0-40.3c-0.1-7.4-2.8-12.6-8.2-15.5    c-4.8-2.5-10.4-3.8-16.7-3.8c-0.2,0-0.4,0-0.7,0c-17.3,0-26.6,8.1-27.6,24l-0.1,1.2h1.2h5.2h1l0.1-1c1.2-11.8,7.8-17.5,20.3-17.6    c3.9,0,7.1,0.5,9.5,1.4c2.3,1.1,4.2,2.4,5.4,3.8c1.3,1.4,2.3,2.8,2.7,4.1c0.4,1.4,0.6,2.5,0.6,3.3c0,2.7-0.1,4.9-0.4,6.5    c-0.3,1.4-1.1,2.5-2.4,3.5c-1.7,1.1-6.6,2.7-20.1,3.4c-1.4,0-2.9,0.1-4.3,0.3l0,0l0,0c-1.6,0.3-3,0.7-4.5,1    c-3.1,0.6-6,1.8-8.7,3.4c-2.7,1.5-4.9,3.7-6.5,6.3c-1.7,2.9-2.5,6.5-2.5,10.8c0.1,7.6,2.5,13,7.2,16.1c4.5,3.1,10.2,4.7,17.1,4.7    c6.9-0.1,12.7-1.8,17.4-5c3.2-2.2,5.8-4.7,7.6-7.6c0,2.9,0.6,5.3,2,7.2c1.3,2.4,4.1,3.6,8.5,3.6c1.4,0,3-0.2,4.5-0.6l0.8-0.2    v-0.9v-4.4v-1.3l-1.3,0.2C13.6-884.9,12.4-884.8,11.5-884.8z M0.7-905.7c0,0.8-0.2,2.5-0.6,4.9c-0.5,2.4-1.6,5-3.2,7.6    c-1.6,2.6-4.1,4.9-7.5,6.8l0,0l0,0c-3.2,2.1-7.8,3.2-13.5,3.2c-5.7-0.1-10-1.5-12.8-4.2l0,0l0,0c-3-2.6-4.4-5.8-4.4-9.8    c0.1-9.4,6-14.3,18.1-15c5-0.5,10.1-1.1,14.9-1.7c2.4-0.3,4.6-0.7,6.4-1.4c1-0.3,1.9-0.7,2.7-1.2V-905.7z"></path>			<path d="M91.3-949.9h-1.1v1.1v10.2c-2.1-3.6-4.9-6.5-8.5-8.7c-4.8-2.8-10.1-4.2-15.9-4.2h0l0,0c-10.1,0.2-17.8,3.7-23.1,10.6    c-5.3,6.7-8,15-8,24.8c0,10,2.6,18.5,7.6,25.1c5.2,6.8,13.1,10.3,23.5,10.4c10.9-0.1,19.1-4.5,24.4-13.1v12.2    c0,1.1-0.1,2.9-0.3,5.4c-0.3,2.5-1.3,5.2-2.7,8c-1.4,2.6-3.8,4.9-7,6.8c-3.2,2.1-7.8,3.1-13.7,3.2c-5.6,0-10.4-1.3-14.3-3.9    c-3.9-2.5-6.1-6.6-6.8-12.3l-0.1-1h-1h-5.2H38l0.1,1.2c0.6,8.2,3.5,14.1,8.9,17.6c5.1,3.3,11.6,5,19.4,5c7.7,0,13.8-1.3,18.1-3.9    c4.3-2.5,7.4-5.7,9.3-9.5c1.9-3.7,3-7.3,3.4-10.7c0.3-3.3,0.4-5.7,0.4-7.1v-66v-1.1h-1.1H91.3z M65.9-887.3    c-7.8-0.1-13.6-2.9-17.6-8.5c-4.1-5.5-6.2-12.3-6.2-20.3c0-7.5,2-14.2,6.1-19.9c3.9-5.7,9.7-8.6,17.8-8.8    c8.3,0.2,14.3,3,18.2,8.5c4,5.6,6,12.4,6,20.2c0,7.8-2,14.6-6,20.1C80.1-890.3,74.1-887.4,65.9-887.3z"></path>			<path d="M156-951.5L156-951.5L156-951.5c-10.6,0.2-18.8,3.9-24.5,11.1c-5.7,7.1-8.6,16-8.6,26.4c0,10.3,2.9,19.1,8.6,26.3    c5.7,7.2,13.9,11,24.4,11.3c10.7-0.2,19-4,24.6-11.3c5.6-7.1,8.5-16,8.5-26.3c0-10.4-2.9-19.3-8.5-26.4    C174.9-947.6,166.7-951.3,156-951.5z M156-883.1c-8.4-0.2-14.6-3.2-18.9-9.4c-4.6-6-6.9-13.2-6.9-21.5c0-8.4,2.3-15.7,6.9-21.7    c4.3-6,10.5-9,18.9-9.2c8.5,0.2,14.9,3.3,19.2,9.2c4.3,6,6.5,13.3,6.5,21.7c0,8.3-2.2,15.5-6.5,21.4    C170.9-886.4,164.4-883.3,156-883.1z"></path>			<path d="M261.9-912.4c-4.8-2.9-10.8-4.9-18-5.8c-1.2-0.4-2.6-0.7-4.1-1.1l0,0l0,0c-1.4-0.3-2.7-0.5-4.1-0.8    c-1.1-0.4-2.2-0.7-3.2-1l-0.6-0.2l0,0l0,0c-1.3-0.3-2.4-0.8-3.4-1.3c-2.1-1-3.7-2.3-4.9-3.9l0,0l0,0c-1.3-1.5-1.9-3.4-1.9-5.9    c0-2.3,0.6-4.3,1.7-5.8c1.1-1.5,2.5-2.8,4.3-3.8c3.9-1.8,8.3-2.7,13-2.7c5.7,0,10.5,1.3,14.2,3.9c3.5,2.5,5.3,6.9,5.4,12.8l0,1.1    h1.1h5.2h1.1l0-1.1c-0.1-8.3-2.7-14.4-7.7-18.1c-5-3.5-11.4-5.2-19.2-5.2c-0.2,0-0.4,0-0.6,0c-6,0-11.7,1.3-16.7,3.8    c-2.7,1.5-4.8,3.4-6.3,5.8c-1.7,2.5-2.6,5.6-2.6,9.4c0,3.7,0.8,6.8,2.3,9.3c1.3,2.4,3.3,4.4,5.8,5.9c2.5,1.4,5.2,2.5,8,3.4    c2.8,0.9,5.8,1.7,8.7,2.3c3,0.5,6,1.1,8.8,1.8c2.8,0.6,5.3,1.4,7.4,2.5l0,0l0,0c2.1,0.9,3.8,2.2,5.1,3.9c1.1,1.7,1.6,3.9,1.6,6.7    c0,2.6-0.6,4.8-1.9,6.5c-1.3,1.9-3,3.3-5,4.3c-2.1,1-4.3,1.7-6.7,2.1l0,0l0,0c-2.5,0.5-4.9,0.8-7.2,0.8c-6,0-11.1-1.7-15.2-5.2    c-4-3.3-6.3-8.1-6.8-14.1l-0.1-1h-1h-5.2h-1.2l0.1,1.2c0.5,8.4,3.4,14.9,8.8,19.2c5.3,4.4,12.2,6.7,20.5,6.7c3.2,0,6.5-0.3,9.8-1    c3.3-0.6,6.3-1.7,9-3.2c3-1.6,5.3-3.8,7-6.5c1.7-2.6,2.5-5.8,2.5-9.6c0-3.8-0.7-7-2-9.6C266-908.9,264.2-910.9,261.9-912.4z"></path>			<path d="M420.3-951.5L420.3-951.5L420.3-951.5c-10.4,0.1-17.8,4.4-22,12.9c-1-2.9-2.9-5.6-5.6-8.1c-1.8-1.5-4.1-2.7-6.7-3.6    c-2.6-0.8-5.7-1.3-9.2-1.3c-5.4,0.1-10.3,1.7-14.6,4.8c-2.7,2-4.8,4.3-6.3,7v-9.1v-1.1h-1.1h-5.2h-1.1v1.1v69.7v1.1h1.1h5.2h1.1    v-1.1v-41.2c0.2-8.5,2.5-14.8,7-18.8c4.3-3.8,9-5.8,13.9-5.8c1.2,0,2.7,0.2,4.4,0.4c1.5,0.3,3.2,1.1,4.8,2.3    c1.7,1.1,3.1,2.8,4.2,5.2c1.2,2.5,1.8,5.9,1.8,10.1v47.7v1.1h1.1h5.2h1.1v-1.1v-41.2c0-8,2-14.2,5.9-18.3    c3.8-4.1,8.8-6.2,14.8-6.2c1.1,0,2.5,0.2,4.3,0.4c1.6,0.3,3.3,1.1,5,2.2l0,0l0,0c1.8,1.1,3.3,2.8,4.5,5.1c1.2,2.5,1.8,6,1.8,10.2    v47.7v1.1h1.1h5.1h1.1v-1.1v-47.6c-0.1-8.5-2.3-14.8-6.4-18.9C432.6-949.5,427-951.5,420.3-951.5z"></path>			<path d="M500.6-951.5L500.6-951.5L500.6-951.5c-10.7,0.2-18.9,4.2-24.2,12c-5.3,7.6-7.8,16.6-7.6,26.8c-0.1,10,2.6,18.6,7.9,25.5    c5.3,7,13.4,10.6,23.9,10.9c17.5-0.2,28-9,31.2-26.1l0.2-1.3h-1.3h-5.2h-0.9l-0.2,0.9c-2.9,13.2-10.7,19.7-23.9,19.8    c-8.2-0.1-14.2-3.1-18.3-9.1c-4-5.6-6.1-12.3-6.2-20h55.1h1l0.1-1c0.6-10.6-1.7-19.6-6.8-26.8    C520.2-947.5,511.9-951.3,500.6-951.5z M476.2-918.9c0.8-6.5,3.2-12.4,7.1-17.6c4.1-5.5,9.8-8.2,17.3-8.4    c7.7,0.2,13.7,3,17.9,8.1c3.9,5,6.1,11,6.5,17.9H476.2z"></path>			<path d="M612.7-977h-1.1v1.1v37.8c-0.6-1.2-1.3-2.2-2.1-3.3c-1.8-2.2-3.9-4.1-6.4-5.7c-4.8-3-10.4-4.5-16.5-4.5    c-10.7,0.1-18.8,3.8-24.2,10.9c-5.2,7-7.9,16-7.9,26.8c-0.1,10.1,2.4,18.8,7.5,26c5,7.4,12.9,11.2,23.6,11.4    c11.5,0,20.1-4.7,25.9-13.9v11.2v1.1h1.1h5.1h1.1v-1.1v-96.7v-1.1h-1.1H612.7z M586.8-883.1c-8.6-0.2-14.8-3.2-18.7-9.4    c-4.1-6-6.2-13.2-6.2-21.4c-0.1-8.5,1.9-15.9,6-21.9c3.9-6,10.1-9,18.8-9.2c8.6,0.2,14.8,3.3,18.8,9.4c4,6.1,6,13.4,6,21.6    c0,8-2.1,15.1-6.1,21.1C601.4-886.4,595.3-883.3,586.8-883.1z"></path>			<polygon points="651,-977 649.9,-977 649.9,-975.9 649.9,-961.9 649.9,-960.8 651,-960.8 656.2,-960.8 657.3,-960.8     657.3,-961.9 657.3,-975.9 657.3,-977 656.2,-977    "></polygon>			<polygon points="651,-949.9 649.9,-949.9 649.9,-948.8 649.9,-879.2 649.9,-878.1 651,-878.1 656.2,-878.1 657.3,-878.1     657.3,-879.2 657.3,-948.8 657.3,-949.9 656.2,-949.9    "></polygon>			<path d="M744.1-884.8c-2.1,0-2.6-1-2.8-1.9l0,0l0,0c-0.5-1.5-0.7-3.3-0.6-5.3l0-40.3c-0.1-7.4-2.8-12.6-8.2-15.5    c-4.8-2.5-10.4-3.8-16.7-3.8h0c-0.2,0-0.4,0-0.7,0c-17.3,0-26.6,8.1-27.6,24l-0.1,1.2h1.2h5.2h1l0.1-1    c1.2-11.8,7.8-17.5,20.3-17.6c3.9,0,7.1,0.5,9.5,1.4c2.3,1.1,4.2,2.4,5.4,3.8c1.3,1.4,2.3,2.8,2.7,4.1c0.4,1.4,0.6,2.5,0.6,3.3    c0,2.8-0.1,5-0.4,6.5c-0.3,1.4-1.1,2.5-2.4,3.5c-1.7,1.1-6.6,2.7-20.1,3.4c-1.4,0-2.9,0.1-4.3,0.3l0,0l0,0c-1.6,0.3-3,0.7-4.5,1    c-3.1,0.6-6,1.8-8.7,3.4c-2.7,1.5-4.9,3.7-6.5,6.3c-1.7,2.9-2.5,6.5-2.5,10.8c0.1,7.6,2.5,13,7.2,16.1c4.5,3.1,10.2,4.7,17.1,4.7    c6.9-0.1,12.7-1.8,17.4-5c3.2-2.2,5.8-4.7,7.6-7.6c0,2.9,0.6,5.3,2,7.2c1.3,2.4,4.1,3.6,8.5,3.6c1.4,0,3-0.2,4.5-0.6l0.8-0.2    v-0.9v-4.4v-1.3l-1.3,0.2C746.2-884.9,744.9-884.8,744.1-884.8z M733.2-905.7c0,0.8-0.2,2.5-0.6,4.9c-0.5,2.4-1.6,5-3.2,7.6    c-1.6,2.6-4.1,4.9-7.5,6.8l0,0l0,0c-3.2,2.1-7.8,3.2-13.5,3.2c-5.7-0.1-10-1.5-12.8-4.2l0,0l0,0c-3-2.6-4.4-5.8-4.4-9.8    c0.1-9.4,6-14.3,18.1-15c5.1-0.5,10.1-1.1,15-1.7c2.4-0.3,4.6-0.7,6.4-1.4c1-0.3,1.9-0.7,2.7-1.2V-905.7z"></path>		</g>		<path d="M625-1384.8c-3.2,84.1-37.4,160.3-91.5,217.4c-23.2-151.5-46.5-303-69.7-454.5c-57.8,154.9-115.7,309.8-173.5,464.7   c-57.8-154.9-115.7-309.8-173.5-464.7c-23.2,151.5-46.5,303-69.7,454.5c-54.1-57.1-88.3-133.3-91.5-217.4c-0.2,4.3-0.3,8.7-0.3,13   c0,185.1,150,335.1,335.1,335.1s335.1-150,335.1-335.1C625.3-1376.1,625.1-1380.5,625-1384.8z M98.2-1123.3   c8.8-105.6,17.5-211.2,26.3-316.8c55.2,122.1,110.5,244.2,165.7,366.3c55.2-122.1,110.5-244.2,165.7-366.3   c8.8,105.6,17.5,211.2,26.3,316.8c-54.4,38.1-120.6,60.6-192.1,60.6S152.5-1085.2,98.2-1123.3z"></path>	</g>	<g>		<g>			<g>				<path class="st0" d="M262.4,49.6c-1.1,0-2,0.5-2.7,1.4c-0.6,0.8-0.9,1.8-0.9,3c0,1.2,0.3,2.2,0.9,3c0.7,0.9,1.5,1.4,2.7,1.4     c1.1,0,2-0.5,2.7-1.4c0.6-0.8,0.9-1.8,0.9-3c0-1.2-0.3-2.2-0.9-3C264.5,50,263.6,49.6,262.4,49.6z"></path>			</g>			<g>				<path class="st0" d="M245.1,49.6c-1.1,0-2,0.4-2.6,1.3c-0.5,0.8-0.8,1.7-0.8,2.9c0,1.1,0.3,2,0.8,2.8c0.6,0.8,1.4,1.3,2.5,1.3     c1,0,1.8-0.4,2.4-1.2c0.6-0.8,0.8-1.7,0.8-2.8c0-1.1-0.2-2.1-0.7-2.9C247,50,246.2,49.6,245.1,49.6z"></path>			</g>			<g>				<path class="st0" d="M284.5,49.6c-2.4,0-3.6,1.4-3.6,4.3c0,1.2,0.3,2.2,0.8,3c0.6,0.9,1.6,1.4,2.8,1.4c1.1,0,2-0.5,2.6-1.4     c0.5-0.8,0.8-1.8,0.8-3c0-1.2-0.3-2.2-0.8-3C286.4,50,285.6,49.6,284.5,49.6z"></path>			</g>			<g>				<path class="st0" d="M122.4,42.9v1h113.7l-6.5,23h63.6l6.8-24.1C245.6,42.9,176.8,42.9,122.4,42.9z M249.6,58.2     c0,3.3-1.5,4.9-4.5,4.9c-1.1,0-2-0.2-2.8-0.7c-0.9-0.6-1.3-1.3-1.4-2.3h1.2c0.2,1.4,1.2,2,3,2c2.2,0,3.3-1.3,3.3-3.8v-1.4h0     c-0.3,0.6-0.7,1.1-1.3,1.5c-0.6,0.4-1.2,0.6-1.9,0.6c-1.5,0-2.7-0.5-3.5-1.5c-0.7-0.9-1.1-2.2-1.1-3.7c0-1.5,0.4-2.7,1.2-3.6     c0.8-1,2-1.5,3.4-1.5c0.7,0,1.4,0.2,2,0.6c0.6,0.4,1,0.9,1.3,1.5h0v-1.8h1.2V58.2z M257,49.9c-1.1-0.1-2,0.3-2.7,1     c-0.7,0.7-1.1,1.6-1.1,2.7V59H252V48.8h1.1v2.4h0c0.3-0.8,0.8-1.5,1.5-1.9c0.7-0.4,1.5-0.6,2.4-0.6V49.9z M266,57.7     c-0.9,1.1-2.1,1.6-3.6,1.6c-1.5,0-2.7-0.5-3.6-1.6c-0.8-1-1.2-2.3-1.2-3.8s0.4-2.8,1.2-3.8c0.9-1.1,2.1-1.6,3.6-1.6     c1.5,0,2.7,0.5,3.6,1.6c0.8,1,1.2,2.3,1.2,3.8S266.8,56.7,266,57.7z M277.3,59h-1.1v-1.8h0c-0.3,0.7-0.8,1.2-1.4,1.6     s-1.3,0.6-2.1,0.6c-2.4,0-3.6-1.3-3.6-3.9v-6.6h1.2v6.6c0,1.9,0.9,2.8,2.7,2.8c1,0,1.8-0.4,2.3-1.3c0.5-0.7,0.7-1.7,0.7-2.8     v-5.3h1.2V59z M287.9,57.7c-0.8,1.1-2,1.6-3.4,1.6c-0.8,0-1.5-0.2-2.1-0.6c-0.7-0.4-1.1-0.9-1.4-1.7h0v5.7h-1.2V48.8h1.1v1.9h0     c0.3-0.7,0.8-1.2,1.4-1.6c0.6-0.4,1.4-0.6,2.2-0.6c1.5,0,2.6,0.5,3.4,1.6c0.7,1,1.1,2.2,1.1,3.8S288.7,56.7,287.9,57.7z"></path>			</g>		</g>		<g>			<g>				<path class="st0" d="M119.6,14.1h1v2.8h0.1c0.2-0.9,0.7-1.6,1.5-2.2c0.8-0.6,1.7-0.9,2.7-0.9c0.7,0,1.2,0.1,1.7,0.2     c0.5,0.2,0.9,0.4,1.2,0.7c0.7,0.6,1,1.3,1.2,2h0.1c0.7-1.9,2.2-2.9,4.3-2.9c1.3,0,2.3,0.4,3.1,1.1c0.8,0.8,1.2,2,1.2,3.6v9.4h-1     v-9.4c0-0.9-0.1-1.6-0.4-2.1c-0.3-0.5-0.6-0.9-1-1.1c-0.4-0.2-0.7-0.4-1.1-0.5c-0.4-0.1-0.6-0.1-0.9-0.1c-1.3,0-2.3,0.4-3.1,1.3     c-0.8,0.8-1.2,2.1-1.2,3.7v8.1h-1v-9.4c0-0.9-0.1-1.6-0.4-2.1c-0.2-0.5-0.5-0.9-0.9-1.1c-0.4-0.3-0.7-0.4-1-0.5     c-0.4-0.1-0.7-0.1-0.9-0.1c-1,0-2,0.4-2.9,1.2c-0.9,0.8-1.4,2.1-1.5,3.9v8.1h-1V14.1z"></path>				<path class="st0" d="M154,25.2c0,0.4,0,0.8,0.1,1.1c0.1,0.4,0.3,0.5,0.8,0.5c0.2,0,0.4,0,0.8-0.1v0.9c-0.3,0.1-0.6,0.1-0.8,0.1     c-0.8,0-1.3-0.2-1.5-0.6c-0.3-0.4-0.4-0.8-0.4-1.4v-0.7h-0.1c-0.3,0.8-0.9,1.5-1.8,2.1c-0.9,0.6-2,0.9-3.3,0.9     c-1.3,0-2.4-0.3-3.3-0.9c-0.9-0.6-1.3-1.6-1.3-3c0-0.8,0.2-1.5,0.5-2c0.3-0.5,0.7-0.9,1.2-1.2c0.5-0.3,1.1-0.5,1.7-0.6     c0.3-0.1,0.6-0.1,0.9-0.2c0.3,0,0.6-0.1,0.8-0.1c2.2-0.1,3.5-0.4,4.1-0.7c0.3-0.2,0.5-0.5,0.6-0.8c0.1-0.3,0.1-0.8,0.1-1.3     c0-0.2,0-0.4-0.1-0.7c-0.1-0.3-0.3-0.6-0.6-0.9c-0.3-0.3-0.7-0.6-1.1-0.8c-0.5-0.2-1.2-0.3-2-0.3c-2.6,0-4,1.2-4.2,3.7h-1     c0.2-3,1.9-4.5,5.2-4.5c1.2,0,2.4,0.2,3.3,0.7c1,0.5,1.5,1.5,1.5,2.9V25.2z M152.1,20.5c-0.3,0.1-0.7,0.2-1.2,0.3     c-0.9,0.1-1.9,0.2-2.9,0.3c-2.5,0.2-3.7,1.2-3.8,3.2c0,0.8,0.3,1.5,0.9,2.1c0.6,0.6,1.5,0.9,2.7,0.9c1.2,0,2.1-0.2,2.8-0.7     c0.7-0.4,1.2-0.9,1.5-1.4c0.3-0.5,0.6-1.1,0.7-1.6c0.1-0.5,0.1-0.8,0.1-1V20C152.8,20.2,152.5,20.4,152.1,20.5z"></path>				<path class="st0" d="M171.6,14.1v13c0,0.3,0,0.7-0.1,1.4c-0.1,0.6-0.3,1.3-0.6,2c-0.4,0.7-0.9,1.3-1.8,1.8     c-0.8,0.5-2,0.7-3.4,0.7c-1.5,0-2.7-0.3-3.7-0.9c-1-0.7-1.5-1.8-1.7-3.3h1c0.1,1.2,0.6,2,1.4,2.6c0.8,0.5,1.8,0.8,2.9,0.8     c1.2,0,2.1-0.2,2.8-0.7c0.7-0.4,1.2-0.9,1.5-1.4c0.3-0.6,0.5-1.1,0.6-1.7c0-0.5,0.1-0.9,0.1-1.1v-3.2h-0.1c-1,2.1-2.6,3.1-5,3.1     c-2,0-3.5-0.7-4.5-2c-1-1.3-1.5-2.9-1.5-4.8c0-1.9,0.5-3.5,1.5-4.8c1-1.3,2.5-2,4.4-2c1.1,0,2.1,0.3,3,0.8     c0.9,0.5,1.5,1.3,1.9,2.4h0.1v-2.9H171.6z M161.9,16.4c-0.8,1.2-1.2,2.5-1.2,4c0,1.6,0.4,3,1.3,4.1c0.8,1.2,2,1.7,3.6,1.8     c1.7,0,2.9-0.6,3.8-1.8c0.8-1.1,1.2-2.5,1.2-4.1c0-1.6-0.4-3-1.2-4.1c-0.8-1.1-2.1-1.7-3.8-1.8     C163.9,14.7,162.7,15.3,161.9,16.4z"></path>				<path class="st0" d="M178.7,15.9c1.1-1.4,2.6-2.1,4.6-2.1c2,0,3.6,0.7,4.7,2.1c1.1,1.4,1.6,3.1,1.6,5.1c0,2-0.5,3.7-1.6,5     c-1.1,1.4-2.6,2.1-4.7,2.1c-2,0-3.6-0.8-4.6-2.1c-1.1-1.4-1.6-3.1-1.6-5C177,18.9,177.6,17.2,178.7,15.9z M179.4,25.3     c0.9,1.3,2.2,1.9,3.9,1.9c1.7,0,3.1-0.7,3.9-1.9c0.9-1.2,1.3-2.7,1.3-4.3c0-1.7-0.4-3.2-1.3-4.4c-0.9-1.2-2.2-1.9-3.9-1.9     c-1.7,0-3,0.7-3.9,1.9c-0.9,1.2-1.4,2.7-1.4,4.4C178,22.6,178.5,24.1,179.4,25.3z"></path>				<path class="st0" d="M195.5,23.2c0.1,1.3,0.6,2.2,1.4,2.9c0.8,0.7,1.9,1.1,3.1,1.1c0.5,0,0.9-0.1,1.5-0.2c0.5-0.1,1-0.2,1.4-0.4     c0.4-0.2,0.8-0.5,1.1-0.9c0.3-0.4,0.4-0.8,0.4-1.4c0-0.6-0.1-1.1-0.4-1.4c-0.3-0.4-0.6-0.7-1.1-0.8c-0.4-0.2-0.9-0.4-1.5-0.5     c-0.6-0.1-1.1-0.2-1.7-0.4c-0.6-0.1-1.2-0.3-1.7-0.5c-0.5-0.2-1.1-0.4-1.5-0.6c-0.5-0.3-0.8-0.7-1.1-1.1c-0.3-0.4-0.4-1-0.4-1.7     c0-0.7,0.2-1.3,0.5-1.7c0.3-0.4,0.7-0.8,1.2-1.1c1-0.5,2.1-0.7,3.3-0.7c1.5,0,2.7,0.3,3.7,1c0.9,0.7,1.4,1.8,1.4,3.4h-1     c0-1.2-0.4-2.1-1.1-2.7c-0.8-0.5-1.7-0.8-2.9-0.8c-1,0-1.9,0.2-2.7,0.6c-0.4,0.2-0.7,0.5-0.9,0.8c-0.3,0.3-0.4,0.8-0.4,1.3     c0,0.5,0.1,1,0.4,1.3c0.3,0.3,0.6,0.6,1,0.8c0.2,0.1,0.5,0.2,0.7,0.3c0.2,0.1,0.5,0.2,0.8,0.2c0.3,0.1,0.6,0.1,0.8,0.2     c0.3,0.1,0.5,0.1,0.8,0.2c1.4,0.2,2.6,0.6,3.5,1.1c0.4,0.3,0.8,0.7,1,1.1c0.2,0.5,0.4,1.1,0.4,1.8c0,0.7-0.2,1.3-0.5,1.8     c-0.3,0.5-0.7,0.9-1.3,1.2c-0.5,0.3-1.1,0.5-1.7,0.6c-0.6,0.1-1.3,0.2-1.9,0.2c-1.6,0-2.9-0.4-3.9-1.3c-1-0.8-1.6-2-1.7-3.6     H195.5z"></path>				<path class="st0" d="M221.4,14.1h1v2.8h0.1c0.2-0.9,0.7-1.6,1.5-2.2c0.8-0.6,1.7-0.9,2.7-0.9c0.7,0,1.2,0.1,1.7,0.2     c0.5,0.2,0.9,0.4,1.2,0.7c0.7,0.6,1,1.3,1.2,2h0.1c0.7-1.9,2.2-2.9,4.3-2.9c1.3,0,2.3,0.4,3.1,1.1c0.8,0.8,1.2,2,1.2,3.6v9.4h-1     v-9.4c0-0.9-0.1-1.6-0.4-2.1c-0.3-0.5-0.6-0.9-1-1.1c-0.4-0.2-0.7-0.4-1.1-0.5c-0.4-0.1-0.6-0.1-0.9-0.1c-1.2,0-2.3,0.4-3.1,1.3     c-0.8,0.8-1.2,2.1-1.2,3.7v8.1h-1v-9.4c0-0.9-0.1-1.6-0.4-2.1c-0.2-0.5-0.5-0.9-0.9-1.1c-0.4-0.3-0.7-0.4-1-0.5     c-0.4-0.1-0.7-0.1-0.9-0.1c-1,0-2,0.4-2.9,1.2c-0.9,0.8-1.4,2.1-1.5,3.9v8.1h-1V14.1z"></path>				<path class="st0" d="M246.1,21.1c0,1.6,0.4,3.1,1.3,4.3c0.8,1.2,2.1,1.9,3.8,1.9c2.7,0,4.3-1.4,4.9-4.1h1     c-0.6,3.3-2.6,4.9-5.9,5c-2,0-3.5-0.7-4.5-2.1c-1-1.3-1.5-2.9-1.5-4.9c0-2,0.4-3.7,1.5-5.1c1-1.5,2.5-2.2,4.6-2.3     c2.2,0,3.7,0.8,4.7,2.2c1,1.4,1.4,3.1,1.3,5.1H246.1z M256.1,20.2c0-1.5-0.5-2.8-1.3-3.9c-0.9-1.1-2.1-1.6-3.7-1.7     c-1.5,0-2.7,0.6-3.6,1.7c-0.8,1.1-1.3,2.4-1.5,3.8H256.1z"></path>				<path class="st0" d="M273.2,24.8L273.2,24.8c-1.1,2.2-2.9,3.3-5.3,3.3c-2,0-3.5-0.8-4.5-2.2c-1-1.4-1.5-3-1.4-5     c0-2.1,0.5-3.8,1.5-5.1c1-1.4,2.5-2,4.6-2.1c1.2,0,2.2,0.3,3.1,0.8c0.5,0.3,0.9,0.6,1.2,1.1c0.3,0.4,0.6,0.9,0.8,1.5h0.1V8.7h1     v19h-1V24.8z M271.9,25.2c0.8-1.2,1.2-2.7,1.2-4.3c0-1.7-0.4-3.1-1.2-4.4c-0.8-1.3-2.1-1.9-3.9-2c-1.8,0-3.1,0.7-3.9,1.9     c-0.8,1.2-1.2,2.7-1.2,4.4c0,1.7,0.4,3.1,1.3,4.3c0.8,1.3,2.1,1.9,3.9,1.9C269.8,27.2,271.1,26.5,271.9,25.2z"></path>				<path class="st0" d="M280.7,11.5V8.7h1v2.7H280.7z M280.7,27.8V14.1h1v13.7H280.7z"></path>				<path class="st0" d="M298.1,25.2c0,0.4,0,0.8,0.1,1.1c0.1,0.4,0.3,0.5,0.8,0.5c0.2,0,0.4,0,0.8-0.1v0.9     c-0.3,0.1-0.6,0.1-0.8,0.1c-0.8,0-1.3-0.2-1.5-0.6c-0.3-0.4-0.4-0.8-0.4-1.4v-0.7h-0.1c-0.3,0.8-0.9,1.5-1.8,2.1     c-0.9,0.6-2,0.9-3.3,0.9c-1.3,0-2.4-0.3-3.3-0.9c-0.9-0.6-1.3-1.6-1.3-3c0-0.8,0.2-1.5,0.5-2c0.3-0.5,0.7-0.9,1.2-1.2     c0.5-0.3,1.1-0.5,1.7-0.6c0.3-0.1,0.6-0.1,0.9-0.2c0.3,0,0.6-0.1,0.8-0.1c2.2-0.1,3.5-0.4,4.1-0.7c0.3-0.2,0.5-0.5,0.6-0.8     c0.1-0.3,0.1-0.8,0.1-1.3c0-0.2,0-0.4-0.1-0.7c-0.1-0.3-0.3-0.6-0.6-0.9c-0.3-0.3-0.7-0.6-1.1-0.8c-0.5-0.2-1.2-0.3-2-0.3     c-2.6,0-4,1.2-4.2,3.7h-1c0.2-3,1.9-4.5,5.2-4.5c1.2,0,2.4,0.2,3.3,0.7c1,0.5,1.5,1.5,1.5,2.9V25.2z M296.3,20.5     c-0.3,0.1-0.7,0.2-1.2,0.3c-0.9,0.1-1.9,0.2-2.9,0.3c-2.5,0.2-3.7,1.2-3.8,3.2c0,0.8,0.3,1.5,0.9,2.1c0.6,0.6,1.5,0.9,2.7,0.9     c1.2,0,2.1-0.2,2.8-0.7c0.7-0.4,1.2-0.9,1.5-1.4c0.3-0.5,0.6-1.1,0.7-1.6c0.1-0.5,0.1-0.8,0.1-1V20     C296.9,20.2,296.6,20.4,296.3,20.5z"></path>			</g>			<g>				<path class="st0" d="M133.5,13.5L133.5,13.5L133.5,13.5c-2,0-3.5,0.9-4.3,2.5c-0.2-0.6-0.6-1.1-1.1-1.6     c-0.4-0.3-0.8-0.5-1.3-0.7c-0.5-0.2-1.1-0.2-1.8-0.2c-1.1,0-2,0.3-2.9,0.9c-0.5,0.4-1,0.8-1.2,1.4v-1.8v-0.2h-0.2h-1h-0.2v0.2     v13.7V28h0.2h1h0.2v-0.2v-8.1c0-1.7,0.5-2.9,1.4-3.7c0.9-0.8,1.8-1.1,2.7-1.1c0.2,0,0.5,0,0.9,0.1c0.3,0.1,0.6,0.2,1,0.5     c0.3,0.2,0.6,0.6,0.8,1c0.2,0.5,0.4,1.2,0.4,2v9.4V28h0.2h1h0.2v-0.2v-8.1c0-1.6,0.4-2.8,1.2-3.6c0.8-0.8,1.7-1.2,2.9-1.2     c0.2,0,0.5,0,0.8,0.1c0.3,0.1,0.7,0.2,1,0.4l0,0l0,0c0.4,0.2,0.7,0.6,0.9,1c0.2,0.5,0.4,1.2,0.4,2v9.4V28h0.2h1h0.2v-0.2v-9.4     c0-1.7-0.4-2.9-1.3-3.7C135.9,13.9,134.8,13.5,133.5,13.5z"></path>				<path class="st0" d="M154.9,26.7c-0.4,0-0.5-0.2-0.6-0.4l0,0l0,0c-0.1-0.3-0.1-0.7-0.1-1l0-7.9c0-1.5-0.6-2.5-1.6-3     c-1-0.5-2.1-0.7-3.3-0.7c0,0-0.1,0-0.1,0c-3.4,0-5.2,1.6-5.4,4.7l0,0.2h0.2h1h0.2l0-0.2c0.2-2.3,1.5-3.4,4-3.5     c0.8,0,1.4,0.1,1.9,0.3c0.5,0.2,0.8,0.5,1.1,0.7c0.3,0.3,0.4,0.6,0.5,0.8c0.1,0.3,0.1,0.5,0.1,0.6c0,0.5,0,1-0.1,1.3     c-0.1,0.3-0.2,0.5-0.5,0.7c-0.3,0.2-1.3,0.5-4,0.7c-0.3,0-0.6,0-0.9,0.1l0,0l0,0c-0.3,0.1-0.6,0.1-0.9,0.2     c-0.6,0.1-1.2,0.3-1.7,0.7c-0.5,0.3-1,0.7-1.3,1.2c-0.3,0.6-0.5,1.3-0.5,2.1c0,1.5,0.5,2.5,1.4,3.2c0.9,0.6,2,0.9,3.4,0.9     c1.3,0,2.5-0.3,3.4-1c0.6-0.4,1.1-0.9,1.5-1.5c0,0.6,0.1,1.1,0.4,1.4c0.3,0.5,0.8,0.7,1.7,0.7c0.3,0,0.6,0,0.9-0.1l0.2,0v-0.2     v-0.9v-0.3l-0.3,0C155.3,26.6,155,26.7,154.9,26.7z M152.7,20.4v2.1c0,0.2,0,0.5-0.1,1c-0.1,0.5-0.3,1-0.6,1.5     c-0.3,0.5-0.8,1-1.5,1.3l0,0l0,0c-0.6,0.4-1.5,0.6-2.7,0.6c-1.1,0-2-0.3-2.5-0.8l0,0l0,0c-0.6-0.5-0.9-1.1-0.9-1.9     c0-1.8,1.2-2.8,3.6-3c1-0.1,2-0.2,2.9-0.3c0.5-0.1,0.9-0.1,1.3-0.3C152.4,20.6,152.6,20.5,152.7,20.4z"></path>				<path class="st0" d="M170.6,13.8h-0.2v0.2v2c-0.4-0.7-1-1.3-1.7-1.7c-0.9-0.5-2-0.8-3.1-0.8h0l0,0c-2,0-3.5,0.7-4.5,2.1     c-1,1.3-1.6,3-1.6,4.9c0,2,0.5,3.6,1.5,4.9c1,1.3,2.6,2,4.6,2.1c2.1,0,3.8-0.9,4.8-2.6v2.4c0,0.2,0,0.6-0.1,1.1     c-0.1,0.5-0.2,1-0.5,1.6c-0.3,0.5-0.7,1-1.4,1.3c-0.6,0.4-1.5,0.6-2.7,0.6c-1.1,0-2-0.3-2.8-0.8c-0.8-0.5-1.2-1.3-1.3-2.4l0-0.2     h-0.2h-1h-0.2l0,0.2c0.1,1.6,0.7,2.8,1.7,3.5c1,0.7,2.3,1,3.8,1c1.5,0,2.7-0.3,3.6-0.8c0.8-0.5,1.5-1.1,1.8-1.9     c0.4-0.7,0.6-1.4,0.7-2.1c0.1-0.6,0.1-1.1,0.1-1.4v-13v-0.2h-0.2H170.6z M170.3,20.5c0,1.5-0.4,2.9-1.2,3.9     c-0.8,1.1-2,1.7-3.6,1.7c-1.5,0-2.7-0.6-3.5-1.7c-0.8-1.1-1.2-2.4-1.2-4c0-1.5,0.4-2.8,1.2-3.9c0.8-1.1,1.9-1.7,3.5-1.7     c1.6,0,2.8,0.6,3.6,1.7C169.9,17.6,170.3,18.9,170.3,20.5z"></path>				<path class="st0" d="M183.3,13.5L183.3,13.5L183.3,13.5c-2.1,0-3.7,0.8-4.8,2.2c-1.1,1.4-1.7,3.1-1.7,5.2c0,2,0.6,3.8,1.7,5.2     c1.1,1.4,2.7,2.2,4.8,2.2c2.1,0,3.7-0.8,4.8-2.2c1.1-1.4,1.7-3.1,1.7-5.2c0-2.1-0.6-3.8-1.7-5.2C187,14.3,185.4,13.6,183.3,13.5     z M188.4,20.9c0,1.6-0.4,3-1.3,4.2c-0.8,1.2-2.1,1.8-3.8,1.9c-1.6,0-2.9-0.6-3.7-1.8c-0.9-1.2-1.4-2.6-1.4-4.2     c0-1.7,0.5-3.1,1.3-4.3c0.9-1.2,2.1-1.8,3.7-1.8c1.7,0,2.9,0.7,3.8,1.8C187.9,17.8,188.4,19.3,188.4,20.9z"></path>				<path class="st0" d="M204.1,21.2c-0.9-0.6-2.1-1-3.5-1.2c-0.2-0.1-0.5-0.1-0.8-0.2l0,0l0,0c-0.3-0.1-0.5-0.1-0.8-0.2     c-0.2-0.1-0.4-0.1-0.6-0.2l-0.1,0l0,0l0,0c-0.2-0.1-0.5-0.1-0.7-0.2c-0.4-0.2-0.7-0.5-1-0.8l0,0l0,0c-0.3-0.3-0.4-0.7-0.4-1.2     c0-0.5,0.1-0.8,0.3-1.1c0.2-0.3,0.5-0.5,0.8-0.7c0.8-0.4,1.6-0.5,2.6-0.5c1.1,0,2.1,0.3,2.8,0.8c0.7,0.5,1,1.3,1.1,2.5l0,0.2     h0.2h1h0.2l0-0.2c0-1.6-0.5-2.8-1.5-3.6c-1-0.7-2.2-1-3.8-1c0,0-0.1,0-0.1,0c-1.2,0-2.3,0.2-3.3,0.7c-0.5,0.3-0.9,0.7-1.2,1.1     c-0.3,0.5-0.5,1.1-0.5,1.8c0,0.7,0.2,1.3,0.4,1.8c0.3,0.5,0.6,0.9,1.1,1.2c0.5,0.3,1,0.5,1.6,0.7c0.5,0.2,1.1,0.3,1.7,0.5     c0.6,0.1,1.2,0.2,1.7,0.4c0.6,0.1,1,0.3,1.4,0.5l0,0l0,0c0.4,0.2,0.8,0.4,1,0.8c0.2,0.3,0.3,0.8,0.3,1.3c0,0.5-0.1,0.9-0.4,1.3     c-0.3,0.4-0.6,0.6-1,0.8c-0.4,0.2-0.9,0.3-1.3,0.4l0,0l0,0c-0.5,0.1-1,0.2-1.4,0.2c-1.2,0-2.2-0.3-3-1c-0.8-0.7-1.2-1.6-1.3-2.8     l0-0.2h-0.2h-1h-0.2l0,0.2c0.1,1.7,0.7,2.9,1.7,3.8c1,0.9,2.4,1.3,4,1.3c0.6,0,1.3-0.1,1.9-0.2c0.6-0.1,1.2-0.3,1.8-0.6     c0.6-0.3,1-0.7,1.4-1.3c0.3-0.5,0.5-1.1,0.5-1.9c0-0.7-0.1-1.4-0.4-1.9C205,21.9,204.6,21.5,204.1,21.2z"></path>				<path class="st0" d="M235.3,13.5L235.3,13.5L235.3,13.5c-2,0-3.5,0.9-4.3,2.5c-0.2-0.6-0.6-1.1-1.1-1.6     c-0.4-0.3-0.8-0.5-1.3-0.7c-0.5-0.2-1.1-0.2-1.8-0.2c-1.1,0-2,0.3-2.9,0.9c-0.5,0.4-1,0.8-1.2,1.4v-1.8v-0.2h-0.2h-1h-0.2v0.2     v13.7V28h0.2h1h0.2v-0.2v-8.1c0-1.7,0.5-2.9,1.4-3.7c0.9-0.8,1.8-1.1,2.7-1.1c0.2,0,0.5,0,0.9,0.1c0.3,0.1,0.6,0.2,0.9,0.5     c0.3,0.2,0.6,0.6,0.8,1c0.2,0.5,0.4,1.2,0.4,2v9.4V28h0.2h1h0.2v-0.2v-8.1c0-1.6,0.4-2.8,1.2-3.6c0.8-0.8,1.7-1.2,2.9-1.2     c0.2,0,0.5,0,0.8,0.1c0.3,0.1,0.7,0.2,1,0.4l0,0l0,0c0.4,0.2,0.6,0.6,0.9,1c0.2,0.5,0.4,1.2,0.4,2v9.4V28h0.2h1h0.2v-0.2v-9.4     c0-1.7-0.4-2.9-1.3-3.7C237.7,13.9,236.6,13.5,235.3,13.5z"></path>				<path class="st0" d="M251.1,13.5L251.1,13.5L251.1,13.5c-2.1,0-3.7,0.8-4.8,2.4c-1,1.5-1.5,3.3-1.5,5.3c0,2,0.5,3.7,1.6,5     c1.1,1.4,2.6,2.1,4.7,2.1c3.5,0,5.5-1.8,6.1-5.1l0-0.3H257h-1h-0.2l0,0.2c-0.6,2.6-2.1,3.9-4.7,3.9c-1.6,0-2.8-0.6-3.6-1.8     c-0.8-1.1-1.2-2.4-1.2-3.9h10.8h0.2l0-0.2c0.1-2.1-0.3-3.9-1.3-5.3C255,14.3,253.3,13.6,251.1,13.5z M246.3,20     c0.2-1.3,0.6-2.4,1.4-3.5c0.8-1.1,1.9-1.6,3.4-1.7c1.5,0,2.7,0.6,3.5,1.6c0.8,1,1.2,2.2,1.3,3.5H246.3z"></path>				<path class="st0" d="M273.2,8.5H273v0.2v7.4c-0.1-0.2-0.3-0.4-0.4-0.6c-0.4-0.4-0.8-0.8-1.3-1.1c-1-0.6-2-0.9-3.2-0.9     c-2.1,0-3.7,0.7-4.8,2.1c-1,1.4-1.6,3.1-1.6,5.3c0,2,0.5,3.7,1.5,5.1c1,1.4,2.5,2.2,4.6,2.3c2.3,0,4-0.9,5.1-2.7v2.2V28h0.2h1     h0.2v-0.2v-19V8.5h-0.2H273.2z M272.9,20.9c0,1.6-0.4,3-1.2,4.2c-0.8,1.2-2,1.8-3.6,1.9c-1.7,0-2.9-0.6-3.7-1.8     c-0.8-1.2-1.2-2.6-1.2-4.2c0-1.7,0.4-3.1,1.2-4.3c0.8-1.2,2-1.8,3.7-1.8c1.7,0,2.9,0.6,3.7,1.9     C272.5,17.9,272.9,19.3,272.9,20.9z"></path>				<polygon class="st0" points="280.7,8.5 280.5,8.5 280.5,8.7 280.5,11.5 280.5,11.7 280.7,11.7 281.7,11.7 282,11.7 282,11.5      282,8.7 282,8.5 281.7,8.5     "></polygon>				<polygon class="st0" points="280.7,13.8 280.5,13.8 280.5,14.1 280.5,27.8 280.5,28 280.7,28 281.7,28 282,28 282,27.8      282,14.1 282,13.8 281.7,13.8     "></polygon>				<path class="st0" d="M299.7,26.6c-0.3,0.1-0.5,0.1-0.7,0.1c-0.4,0-0.5-0.2-0.6-0.4l0,0l0,0c-0.1-0.3-0.1-0.7-0.1-1l0-7.9     c0-1.5-0.6-2.5-1.6-3c-1-0.5-2.1-0.7-3.3-0.7l0,0c0,0-0.1,0-0.1,0c-3.4,0-5.2,1.6-5.4,4.7l0,0.2h0.2h1h0.2l0-0.2     c0.2-2.3,1.5-3.4,4-3.5c0.8,0,1.4,0.1,1.9,0.3c0.5,0.2,0.8,0.5,1.1,0.7c0.3,0.3,0.4,0.6,0.5,0.8c0.1,0.3,0.1,0.5,0.1,0.6     c0,0.5,0,1-0.1,1.3c-0.1,0.3-0.2,0.5-0.5,0.7c-0.3,0.2-1.3,0.5-4,0.7c-0.3,0-0.6,0-0.9,0.1l0,0l0,0c-0.3,0.1-0.6,0.1-0.9,0.2     c-0.6,0.1-1.2,0.3-1.7,0.7c-0.5,0.3-1,0.7-1.3,1.2c-0.3,0.6-0.5,1.3-0.5,2.1c0,1.5,0.5,2.5,1.4,3.2c0.9,0.6,2,0.9,3.4,0.9     c1.4,0,2.5-0.3,3.4-1c0.6-0.4,1.1-0.9,1.5-1.5c0,0.6,0.1,1.1,0.4,1.4c0.2,0.5,0.8,0.7,1.7,0.7c0.3,0,0.6,0,0.9-0.1l0.2,0v-0.2     v-0.9v-0.3L299.7,26.6z M296.9,20.4v2.1c0,0.2,0,0.5-0.1,1c-0.1,0.5-0.3,1-0.6,1.5c-0.3,0.5-0.8,1-1.5,1.3l0,0l0,0     c-0.6,0.4-1.5,0.6-2.7,0.6c-1.1,0-2-0.3-2.5-0.8l0,0l0,0c-0.6-0.5-0.9-1.1-0.9-1.9c0-1.8,1.2-2.8,3.6-3c1-0.1,2-0.2,2.9-0.3     c0.5-0.1,0.9-0.1,1.3-0.3C296.6,20.6,296.7,20.5,296.9,20.4z"></path>			</g>		</g>		<path class="st0" d="M119.4,42.3c-0.6,15-6.7,28.6-16.3,38.7c-4.1-27-8.3-54-12.4-81C80.3,27.6,70,55.2,59.7,82.8   C49.4,55.2,39.1,27.6,28.8,0c-4.1,27-8.3,54-12.4,81C6.7,70.8,0.6,57.3,0.1,42.3C0,43,0,43.8,0,44.6c0,33,26.7,59.7,59.7,59.7   s59.7-26.7,59.7-59.7C119.5,43.8,119.4,43,119.4,42.3z M25.5,88.9c1.6-18.8,3.1-37.6,4.7-56.5C40,54.2,49.9,75.9,59.7,97.7   c9.8-21.8,19.7-43.5,29.5-65.3C90.8,51.2,92.4,70,94,88.9c-9.7,6.8-21.5,10.8-34.2,10.8S35.2,95.7,25.5,88.9z"></path>	</g></g></svg>